<?xml version="1.0" encoding="UTF-8"?>
<svg xmlns="http://www.w3.org/2000/svg" viewBox="0 0 340.81 385.51">
    <g id="a" />
    <g id="b">
        <g id="c">
            <path
                d="M0,214.42c10.74-10.62,21.93-21.8,33.28-32.81,2.47-2.4,3.42-4.86,3.42-8.29-.08-55.84-.04-111.68-.03-167.52,0-1.81,0-3.62,0-4.73,35.72,35.78,71.64,71.75,107.88,108.05-23.92,23.82-48.7,48.5-73.73,73.42,33.11,55.14,66.08,110.05,99.55,165.79,33.34-55.51,66.3-110.39,99.23-165.21-24.94-24.85-49.8-49.62-74.22-73.96C231.87,72.36,267.5,36.44,303.64,0c.1,2.15,.24,3.87,.24,5.59,.01,54.34,.1,108.68-.1,163.01-.02,6.59,1.52,11.5,6.56,16.14,10.63,9.79,20.6,20.32,30.47,30.18-57.03,57.19-113.73,114.04-170.12,170.59C114.18,328.86,57.39,271.94,0,214.42Zm63.85-64.63c14.32-14.3,28.4-28.38,41.61-41.57-13.77-13.95-27.8-28.15-41.61-42.14v83.71Zm212.67,.35V65.94c-14.13,14.14-28.17,28.19-42.03,42.06,13.7,13.74,27.67,27.73,42.03,42.14ZM38.9,214.99c17.07,17.16,33.87,34.04,50.08,50.34-12.23-20.36-24.93-41.51-37.62-62.65-4.62,4.56-8.86,8.75-12.46,12.31Zm213.21,49.82c16.25-16.22,33.1-33.02,49.31-49.2-3.66-3.9-7.7-8.22-12.06-12.87-12.63,21.04-25.2,41.99-37.25,62.06Z" />
        </g>
    </g>
</svg>